<svg width="330" height="259" viewBox="0 0 330 259" fill="none" xmlns="http://www.w3.org/2000/svg">
<path d="M151.289 35.3701L94.7061 67.3105V67.6994M151.289 35.3701L203.451 90.3785L206.473 88.0207L218.481 102.8L190.19 127.642L177.812 114.334L180.464 111.672L159.246 90.3785L153.941 170.229H94.7061V67.6994M151.289 35.3701L109.736 80.619L94.7061 67.6994" stroke="white" stroke-width="3" stroke-linecap="round" stroke-linejoin="round"/>
<path d="M178.761 113.885L206.472 88.0215" stroke="white" stroke-width="3" stroke-linecap="round" stroke-linejoin="round"/>
<path d="M94.7061 103.725C98.7872 103.725 102.096 100.417 102.096 96.3358C102.096 92.2547 98.7872 88.9463 94.7061 88.9463" stroke="white" stroke-width="3"/>
<path d="M94.7061 129.591C98.7872 129.591 102.096 126.282 102.096 122.201C102.096 118.12 98.7872 114.812 94.7061 114.812" stroke="white" stroke-width="3"/>
<path d="M94.7061 155.45C98.7872 155.45 102.096 152.142 102.096 148.06C102.096 143.979 98.7872 140.671 94.7061 140.671" stroke="white" stroke-width="3"/>
<path d="M235.255 256.718H185.376L171.521 191.136V153.265M235.255 256.718V197.602M235.255 256.718L256.5 201.297L235.255 197.602M171.521 153.265V140.333H235.255V153.265M171.521 153.265H235.255M235.255 153.265V180.976V197.602M189.071 167.12H218.629V186.518L204.773 197.602L189.071 186.518V167.12Z" stroke="white" stroke-width="3" stroke-linecap="round" stroke-linejoin="round"/>
<path d="M161.254 213.606C161.254 211.835 159.754 211.023 159.004 210.838C157.238 210.222 154.843 209.378 152.25 208.451C146.304 206.326 141.56 205.302 137.058 202.537C132.95 200.014 129.387 194.675 125.805 196.447C124.833 196.926 126.708 202.287 125.805 202.586C119.187 204.778 114.516 202.497 112.865 200.873C111.704 201.587 110.862 202.897 110.261 204.467C109 207.765 108.799 212.213 108.927 214.714M161.254 213.606C161.254 213.053 162.38 214.16 162.38 214.16V218.589C152.477 222.575 112.864 221.911 107.8 219.696C106.675 216.375 108.176 214.529 108.927 214.714M161.254 213.606C161.254 215.178 136.617 215.634 121.094 215.371C114.736 215.264 109.907 215.035 108.927 214.714" stroke="white" stroke-width="3" stroke-linecap="round" stroke-linejoin="round"/>
<path d="M140.106 247.442C140.106 245.671 138.605 244.859 137.855 244.674C136.09 244.058 133.695 243.213 131.102 242.287C125.156 240.162 120.411 239.138 115.91 236.373C111.801 233.85 108.239 228.511 104.657 230.283C103.684 230.762 105.56 236.123 104.657 236.422C98.0383 238.614 93.3671 236.333 91.7167 234.709C90.5553 235.423 89.7138 236.733 89.113 238.303C87.8511 241.601 87.651 246.049 87.7781 248.55M140.106 247.442C140.106 246.889 141.231 247.996 141.231 247.996V252.425C131.328 256.411 91.7154 255.747 86.6515 253.532C85.5262 250.211 87.0279 248.365 87.7781 248.55M140.106 247.442C140.106 249.013 115.469 249.47 99.9457 249.207C93.5879 249.1 88.7591 248.871 87.7781 248.55" stroke="white" stroke-width="3" stroke-linecap="round" stroke-linejoin="round"/>
<circle cx="252.671" cy="115.481" r="12.4796" stroke="white" stroke-width="3"/>
<circle cx="286.223" cy="115.481" r="12.4796" stroke="white" stroke-width="3"/>
<path d="M262.459 107.092C263.857 105.209 268.61 102.573 276.439 107.092M298.136 110.012C299.534 110.012 301.882 108.49 303 102.898M240.985 109.202C239.121 108.736 235.618 107.372 234.5 102.898" stroke="white" stroke-width="3" stroke-linecap="round" stroke-linejoin="round"/>
<path d="M224.427 59.5437C243.495 70.001 265.639 65.6015 270.41 59.5437L268.77 54.3983M224.427 59.5437C224.731 52.2797 225.495 40.501 231.995 32.501L263.495 37.001L268.77 54.3983M224.427 59.5437C217.727 59.5437 212.899 63.2985 214.995 67.001C220.477 76.6863 255.994 77.501 267.994 74.501C291.464 68.6336 281.623 57.0215 268.77 54.3983" stroke="white" stroke-width="3" stroke-linecap="round" stroke-linejoin="round"/>
<path d="M224.995 53.001C226.495 54.501 251.295 66.769 268.495 54.9678" stroke="white" stroke-width="3" stroke-linecap="round" stroke-linejoin="round"/>
<path d="M260.714 151.501C273.214 166.001 289.114 176.301 304.714 175.501M260.714 151.501C258.669 155.719 256.762 163.523 261.214 168.016M260.714 151.501C266.315 152.701 292.381 168.001 304.714 175.501M304.714 175.501C307.381 176.334 312.614 179.801 314.214 187.001C301.714 190.501 287.214 187.001 287.214 187.001C287.214 187.001 276.214 175.913 269.214 172.001M261.214 168.016C262.568 169.382 263.214 169.001 267.214 171.001C268.044 171.416 268.714 171.722 269.214 172.001M261.214 168.016C262.381 171.344 264.614 179.501 264.214 185.501H269.214V172.001" stroke="white" stroke-width="3" stroke-linecap="round" stroke-linejoin="round"/>
<path d="M274.714 196.501C287.214 211.001 303.114 221.301 318.714 220.501M274.714 196.501C272.669 200.719 270.762 208.523 275.214 213.016M274.714 196.501C280.315 197.701 306.381 213.001 318.714 220.501M318.714 220.501C321.381 221.334 326.614 224.801 328.214 232.001C315.714 235.501 301.214 232.001 301.214 232.001C301.214 232.001 290.214 220.913 283.214 217.001M275.214 213.016C276.568 214.382 277.214 214.001 281.214 216.001C282.044 216.416 282.714 216.722 283.214 217.001M275.214 213.016C276.381 216.344 278.614 224.501 278.214 230.501H283.214V217.001" stroke="white" stroke-width="3" stroke-linecap="round" stroke-linejoin="round"/>
<path d="M33.9923 87.2197C33.9923 84.9801 34.9056 80.501 38.5587 80.501C43.1252 80.501 43.7775 84.5322 43.7775 88.5634C43.7775 93.5348 42.0506 95.9915 39.8633 97.7323M39.8633 97.7323C38.7457 98.6219 37.2824 99.3035 35.2969 99.9851C29.4257 102.001 3.98405 111.071 1.70082 117.118C-0.125764 121.955 10.8356 121.485 21.2713 121.485H67.9144C72.4828 121.485 80.7888 122.006 79.3306 117.118C78.0277 112.751 53.1278 102.067 39.8633 97.7323Z" stroke="white" stroke-width="3" stroke-linecap="round" stroke-linejoin="round"/>
<path d="M60.0002 154.501H46.0002C47.83 166.409 47.834 172.501 46.0008 178.001C42.001 190.001 47.4978 193.501 51.5001 193.501C55.5024 193.501 60.8832 192.519 70.6326 197.65C77 201.001 88.5548 202.646 90.0725 194.841C91.5 187.501 78.3514 185.573 67.7738 179.675C59.3117 174.957 59.7143 162.926 60.0002 154.501Z" stroke="white" stroke-width="3" stroke-linecap="round" stroke-linejoin="round"/>
<path d="M32.8908 175.501H18.8908C20.7206 187.409 20.7246 193.501 18.8914 199.001C14.8916 211.001 20.3884 214.501 24.3907 214.501C28.393 214.501 33.7739 213.519 43.5232 218.65C49.8906 222.001 61.4455 223.646 62.9632 215.841C64.3906 208.501 51.242 206.573 40.6644 200.675C32.2023 195.957 32.6049 183.926 32.8908 175.501Z" stroke="white" stroke-width="3" stroke-linecap="round" stroke-linejoin="round"/>
<path d="M33.6689 34.2637C34.792 35.8344 36.4665 36.8503 37.5 37.2637L59.5 43.2637C63.8333 41.8442 73.8 38.657 79 37.2637C82.1703 36.4142 84.0148 34.7741 85.0095 33.2637M33.6689 34.2637C32.981 33.3015 32.5 32.1312 32.5 30.7637C32.5 27.1637 32.5 23.2637 32.5 21.7637H86V30.7637C85.9349 31.3828 85.6464 32.2966 85.0095 33.2637M33.6689 34.2637V52.2637C33.446 53.597 33.9 56.2637 37.5 56.2637C41.1 56.2637 68 56.2637 81 56.2637C82.5 56.097 85.5 55.1637 85.5 52.7637C85.5 50.3637 85.173 38.7637 85.0095 33.2637" stroke="white" stroke-width="3" stroke-linecap="round" stroke-linejoin="round"/>
<path d="M38 21.7631L57 2.76308C58.0635 1.42975 60.5 0.763672 62.5 2.76308C63.3164 3.57921 75.2698 16.7631 80.5 21.7631" stroke="white" stroke-width="3" stroke-linecap="round" stroke-linejoin="round"/>
</svg>
